<svg class="border shadow-md dark:border-slate-700" viewBox="0 0 1013.76 570.24" style="width: 1013.76px; height: 570.24px;" xmlns="http://www.w3.org/2000/svg" preserveAspectRatio="none"><rect class="bg" id="bg" x="0" y="0" width="1013.76" height="570.24" fill="#121212"/><g transform="translate(-356.4 213.84000000000003) scale(1)"><path d="M530.5,467.5Q485,579,346.5,596Q208,613,116.5,484.5Q25,356,119,232Q213,108,340.5,135.5Q468,163,522,259.5Q576,356,530.5,467.5Z" fill="#923aaf" stroke="none" stroke-width="10"/></g><g transform="translate(657.36 -356.4) scale(1)"><path d="M540.5,450.5Q465,545,334.5,583Q204,621,155,488.5Q106,356,166,243Q226,130,379,91.5Q532,53,574,204.5Q616,356,540.5,450.5Z" fill="#923aaf" stroke="none" stroke-width="10"/></g></svg>